Coordinates
version=1
nRows=8
nColumns=40
inDegrees=yes

Units are S.I. units (second, meters, Newtons, ...)
Angles are in degrees.

endheader
time	pelvis_tilt	pelvis_list	pelvis_rotation	pelvis_tx	pelvis_ty	pelvis_tz	hip_flexion_r	hip_adduction_r	hip_rotation_r	knee_angle_r	knee_angle_r_beta	ankle_angle_r	subtalar_angle_r	mtp_angle_r	hip_flexion_l	hip_adduction_l	hip_rotation_l	knee_angle_l	knee_angle_l_beta	ankle_angle_l	subtalar_angle_l	mtp_angle_l	lumbar_extension	lumbar_bending	lumbar_rotation	arm_flex_r	arm_add_r	arm_rot_r	elbow_flex_r	pro_sup_r	wrist_flex_r	wrist_dev_r	arm_flex_l	arm_add_l	arm_rot_l	elbow_flex_l	pro_sup_l	wrist_flex_l	wrist_dev_l
     19.91000000	     -4.31726853	     -3.55266847	      4.35018876	      0.84824507	      0.92052577	      0.44141758	      1.15437952	     -0.76129275	    -13.81845202	     28.19061210	     28.19061210	     17.07386538	     -2.30927845	     -7.13743453	     26.55055237	     -2.03102422	     -0.34934706	     24.41475619	     24.41475619	      5.88160941	    -13.55856238	      1.56219670	     -6.08618428	      3.09960295	      3.94358737	     25.85718690	    -13.72214929	     -6.10760040	     83.59879310	     45.08457664	      0.00000000	      0.00000000	     -0.54614532	     -7.47462925	      3.59738842	     25.99478690	     44.99417273	      0.00000000	      0.00000000
     19.92200000	     -4.31314958	     -3.51662587	      4.07226196	      0.84831347	      0.92183494	      0.43953454	      2.56820243	     -1.27226497	    -13.17000334	     31.37040181	     31.37040181	     14.67295890	     -4.78340803	    -10.66724644	     25.83777696	     -2.08973501	     -0.92532870	     24.18440369	     24.18440369	      6.37808046	    -13.02827574	      0.94930907	     -5.99266140	      3.11682365	      3.60251070	     24.95940658	    -13.26212992	     -6.05659347	     79.29201170	     45.22623879	      0.00000000	      0.00000000	      0.55677215	     -7.63017723	      3.54188452	     26.20577223	     45.04676555	      0.00000000	      0.00000000
     19.93400000	     -4.27954825	     -3.25657490	      3.78473716	      0.84830312	      0.92308726	      0.43754066	      4.23330126	     -2.24864798	    -12.98360732	     35.20245950	     35.20245950	     13.19267296	     -6.02102954	    -11.32729593	     24.96396821	     -1.87105977	     -1.47698694	     23.76712951	     23.76712951	      6.91466523	    -12.58936773	      0.62379714	     -6.14029308	      2.91944905	      3.57638585	     23.16039227	    -13.17242986	     -5.73547197	     77.78840822	     45.25777685	      0.00000000	      0.00000000	      1.70197198	     -7.89852715	      3.45882246	     26.79015843	     45.08258592	      0.00000000	      0.00000000
     19.94600000	     -4.30536495	     -3.07324624	      3.47363807	      0.84811085	      0.92407069	      0.43570481	      6.12414999	     -3.06932788	    -12.57116138	     39.14428058	     39.14428058	     11.53454411	     -7.60974859	    -11.77089336	     24.20143504	     -1.75113326	     -2.09778628	     23.39075678	     23.39075678	      7.38609294	    -12.06862317	      0.22603414	     -6.15704689	      2.82525461	      3.65397989	     21.41603857	    -13.22728984	     -5.50783054	     75.73081142	     45.31076040	      0.00000000	      0.00000000	      2.91403400	     -8.13877608	      3.39567047	     27.43610499	     45.11516806	      0.00000000	      0.00000000
     19.95800000	     -4.34398142	     -3.07390268	      3.12534749	      0.84770517	      0.92485860	      0.43431778	      8.13426034	     -3.44865623	    -11.75452995	     42.97455316	     42.97455316	      9.45272768	    -10.10411252	    -12.23501465	     23.56157530	     -1.93270789	     -2.92682851	     23.15009047	     23.15009047	      7.76926192	    -11.11719593	     -0.82834539	     -6.10188056	      2.86079251	      3.45442325	     20.63283087	    -12.90505136	     -5.23533844	     70.96406879	     45.45386930	      0.00000000	      0.00000000	      3.89117198	     -8.46874911	      3.45442122	     28.28632219	     45.13261281	      0.00000000	      0.00000000
     19.97000000	     -4.38485545	     -2.90646373	      2.81534434	      0.84716511	      0.92545335	      0.43275788	     10.24806136	     -4.12383613	    -11.21699271	     46.93899824	     46.93899824	      7.85395268	    -11.69193127	    -11.70802172	     22.88228538	     -1.82886167	     -3.52062886	     22.82680307	     22.82680307	      8.12994380	    -10.59164823	     -1.36557996	     -6.13408501	      2.75951620	      3.44116074	     19.14557300	    -12.90808693	     -4.82994295	     68.15187702	     45.52428574	      0.00000000	      0.00000000	      5.03098644	     -8.79807394	      3.41550894	     29.21860671	     45.16281728	      0.00000000	      0.00000000
     19.98200000	     -4.32977046	     -2.76271276	      2.49217680	      0.84651433	      0.92598033	      0.43136323	     12.32897102	     -4.65428043	    -10.54988868	     50.84153724	     50.84153724	      6.71642655	    -13.09202632	     -9.95355870	     22.19787049	     -1.79674224	     -4.22749461	     22.66243083	     22.66243083	      8.48644180	     -9.95233646	     -2.10464099	     -6.25932939	      2.69105135	      3.26529878	     18.11079220	    -12.75513083	     -4.36396771	     64.37389814	     45.62385644	      0.00000000	      0.00000000	      6.08456932	     -9.22697940	      3.45932669	     30.26298694	     45.18226261	      0.00000000	      0.00000000
     19.99400000	     -4.32928031	     -2.55358185	      2.20664207	      0.84576906	      0.92633880	      0.42992620	     14.55290639	     -5.28061710	     -9.98624652	     54.77275015	     54.77275015	      6.64729821	    -13.48263541	     -5.87996709	     21.52793587	     -1.63267949	     -4.81063911	     22.38024816	     22.38024816	      8.72210585	     -9.50946579	     -2.81108891	     -6.31975752	      2.56262897	      2.44161405	     17.70665461	    -12.21741158	     -3.42036286	     59.83720850	     45.71712966	      0.00000000	      0.00000000	      6.60912874	     -9.92079900	      3.59314795	     31.68705890	     45.20134333	      0.00000000	      0.00000000
